<?xml version="1.0" encoding="utf-8"?>
<!-- Generator: Adobe Illustrator 25.2.1, SVG Export Plug-In . SVG Version: 6.00 Build 0)  -->
<svg version="1.1" id="Layer_1" xmlns="http://www.w3.org/2000/svg" xmlns:xlink="http://www.w3.org/1999/xlink" x="0px" y="0px"
	 viewBox="0 0 1200 1200" style="enable-background:new 0 0 1200 1200;" xml:space="preserve">
<style type="text/css">
	.st0{fill:#666767;}
	.st1{fill:#884532;}
	.st2{font-family:'Ailerons-Regular';}
	.st3{font-size:122.8232px;}
	.st4{letter-spacing:-16.1;}
	.st5{fill:#999A98;}
</style>
<text transform="matrix(1.4908 0 0 1 158.9178 907.2445)" class="st1 st2 st3 st4">EmpaCompany</text>
<polygon class="st5" points="701.96,768.17 597.89,792.26 745.12,644.26 846.81,622.38 "/>
<polygon class="st1" points="412.55,486.08 301.15,511.87 266.76,446.6 378.17,420.81 "/>
<polygon class="st5" points="537.77,456.6 426.36,482.39 391.98,417.12 503.39,391.33 "/>
<polygon class="st1" points="579.16,535.18 341.51,588.5 307.13,523.23 544.78,469.91 "/>
<polygon class="st1" points="494.39,641.42 382.98,667.22 348.6,601.95 460,576.15 "/>
<polygon class="st5" points="619.6,611.94 508.2,637.73 473.81,572.47 585.22,546.67 "/>
<polygon class="st1" points="661,690.52 423.35,743.85 388.96,678.58 626.61,625.25 "/>
<polygon class="st1" points="576.57,797.64 465.16,823.44 430.78,758.17 542.19,732.38 "/>
<polygon class="st5" points="701.79,768.16 590.38,793.96 556,728.69 667.4,702.89 "/>
<polygon class="st1" points="373.12,406.83 269.05,430.92 417.85,285.92 517.97,261.04 "/>
<polygon class="st5" points="497.38,379.81 393.31,403.91 540.54,255.91 642.23,234.03 "/>
<polygon class="st1" points="615.23,477.74 591.87,432.58 617.96,407.25 702.48,388.12 "/>
<polygon class="st1" points="693.21,625.77 669.85,580.61 695.94,555.28 780.46,536.15 "/>
</svg>
