<?xml version="1.0" standalone="no"?>
<!DOCTYPE svg PUBLIC "-//W3C//DTD SVG 20010904//EN"
 "http://www.w3.org/TR/2001/REC-SVG-20010904/DTD/svg10.dtd">
<svg version="1.0" xmlns="http://www.w3.org/2000/svg"
 width="2500.000000pt" height="2500.000000pt" viewBox="0 0 2500.000000 2500.000000"
 preserveAspectRatio="xMidYMid meet">

<g transform="translate(0.000000,2500.000000) scale(0.100000,-0.100000)"
fill="#000000" stroke="none">
<path d="M9740 19301 l-1035 -258 -1543 -1503 c-848 -827 -1540 -1505 -1538
-1507 2 -3 487 107 1076 244 l1072 248 1466 1475 c1437 1445 1551 1561 1542
1559 -3 0 -471 -117 -1040 -258z"/>
<path d="M13739 16711 l-867 -197 -271 -263 -270 -263 119 -232 c66 -127 175
-338 243 -468 67 -131 124 -238 127 -237 3 0 303 307 667 682 364 375 771 793
903 930 133 136 236 247 228 246 -7 0 -403 -89 -879 -198z"/>
<path d="M6710 15963 c-630 -146 -1146 -267 -1148 -268 -3 -3 697 -1336 709
-1349 6 -7 2306 518 2318 529 7 8 -707 1350 -720 1352 -8 1 -529 -118 -1159
-264z"/>
<path d="M8895 14660 c-1342 -302 -2452 -552 -2467 -557 l-27 -8 355 -675
c196 -371 357 -676 358 -677 4 -4 4937 1104 4942 1110 7 7 -700 1350 -712
1353 -5 1 -1107 -245 -2449 -546z"/>
<path d="M15372 13630 l-873 -199 -247 -239 c-136 -132 -258 -251 -271 -265
l-23 -26 231 -449 c128 -247 238 -457 245 -467 11 -15 114 87 907 901 789 810
921 947 907 943 -2 0 -396 -90 -876 -199z"/>
<path d="M8470 12739 c-586 -136 -1097 -255 -1136 -264 l-71 -16 353 -671
c195 -370 357 -675 362 -679 5 -6 2249 505 2309 526 7 2 -129 271 -344 679
-336 638 -357 676 -382 675 -14 -1 -505 -113 -1091 -250z"/>
<path d="M10568 11417 c-1352 -304 -2458 -555 -2458 -559 0 -15 710 -1353 717
-1352 22 4 4938 1107 4940 1108 2 1 -158 307 -354 679 -249 473 -361 677 -372
676 -9 0 -1122 -249 -2473 -552z"/>
<path d="M10130 9473 c-630 -146 -1147 -267 -1149 -269 -2 -2 150 -295 338
-652 187 -357 341 -652 341 -655 0 -4 -7 -7 -15 -7 -8 0 -15 -2 -15 -5 0 -2
-90 -403 -200 -890 -110 -488 -200 -888 -200 -891 0 -2 67 -4 149 -4 l149 0
77 398 c152 777 162 826 168 807 3 -11 56 -276 117 -590 60 -313 112 -580 115
-592 5 -23 8 -23 156 -23 138 0 150 1 145 18 -3 9 -89 386 -191 837 -102 451
-191 835 -197 854 -6 19 -21 44 -33 55 l-23 21 1071 248 c589 137 1073 249
1074 251 7 6 -711 1356 -721 1355 -6 0 -526 -120 -1156 -266z"/>
<path d="M11283 7900 c-103 -21 -191 -79 -222 -144 -21 -41 -21 -57 -21 -761
0 -707 0 -719 21 -762 24 -49 80 -94 159 -125 50 -21 72 -23 240 -23 169 0
190 2 241 23 81 32 133 74 158 124 20 41 21 60 21 277 0 182 -3 232 -12 228
-7 -2 -58 -18 -114 -35 -141 -44 -138 -40 -142 -229 -4 -178 -9 -193 -78 -219
-82 -31 -179 -5 -211 57 -10 18 -13 180 -13 684 0 504 3 666 13 684 32 63 129
88 212 56 74 -28 75 -31 75 -273 0 -188 2 -213 15 -208 9 3 60 19 114 36 56
17 107 40 117 51 17 19 19 42 22 196 3 162 2 177 -19 219 -25 53 -90 104 -164
130 -57 20 -339 29 -412 14z"/>
<path d="M13023 7899 c-101 -19 -191 -77 -222 -143 -21 -41 -21 -57 -21 -759
0 -579 3 -724 13 -750 15 -35 79 -97 126 -121 61 -32 153 -46 306 -46 213 0
312 27 387 107 60 63 58 37 58 810 0 663 -2 711 -19 748 -33 74 -116 129 -229
154 -60 13 -335 13 -399 0z m296 -165 c75 -30 71 15 71 -739 0 -754 4 -709
-71 -739 -89 -36 -226 -7 -256 54 -10 19 -13 180 -13 685 0 505 3 666 13 685
30 61 167 90 256 54z"/>
<path d="M4180 7877 l-25 -13 -3 -882 -2 -883 342 3 c281 2 348 6 373 18 17 9
50 45 76 85 l46 70 -283 3 -284 2 0 319 c0 284 2 320 17 332 11 9 56 16 137
19 74 4 129 11 141 19 11 7 41 45 67 84 l48 72 -205 3 -205 2 0 274 c0 242 2
275 17 287 11 10 63 15 187 19 109 3 179 10 193 17 17 10 79 90 116 151 12 18
-717 17 -753 -1z"/>
<path d="M5660 6995 l0 -895 135 0 135 0 2 455 3 455 85 -247 c47 -136 94
-261 105 -278 34 -51 97 -76 185 -73 l74 3 103 300 102 300 0 -457 1 -458 135
0 135 0 0 895 0 895 -100 0 c-107 0 -161 -14 -178 -47 -6 -10 -76 -243 -157
-518 -81 -275 -150 -506 -154 -512 -3 -7 -76 211 -160 485 -84 273 -159 512
-167 530 -19 47 -62 62 -184 62 l-100 0 0 -895z"/>
<path d="M7730 7005 c0 -864 0 -885 19 -895 11 -5 72 -10 135 -10 l116 0 0
399 0 398 143 6 c160 5 220 20 294 71 34 23 57 50 78 91 l30 59 3 285 c3 284
3 286 -20 330 -30 56 -98 104 -185 131 -59 18 -93 20 -339 20 l-274 0 0 -885z
m489 699 c70 -28 71 -33 71 -308 l0 -244 -26 -31 c-32 -38 -77 -51 -181 -51
l-83 0 0 325 0 325 90 0 c58 0 103 -6 129 -16z"/>
<path d="M14430 6995 l0 -895 135 0 135 0 2 455 3 455 85 -247 c47 -136 94
-261 105 -278 34 -51 97 -76 185 -73 l74 3 103 300 102 300 0 -457 1 -458 135
0 135 0 0 895 0 895 -100 0 c-107 0 -161 -14 -178 -47 -6 -10 -76 -243 -157
-518 -81 -275 -150 -506 -154 -512 -3 -7 -76 211 -160 485 -84 273 -159 512
-167 530 -19 47 -62 62 -184 62 l-100 0 0 -895z"/>
<path d="M16500 7005 c0 -864 0 -885 19 -895 11 -5 72 -10 135 -10 l116 0 0
399 0 398 143 6 c160 5 220 20 294 71 34 23 57 50 78 91 l30 59 3 285 c3 284
3 286 -20 330 -30 56 -98 104 -185 131 -59 18 -93 20 -339 20 l-274 0 0 -885z
m489 699 c70 -28 71 -33 71 -308 l0 -244 -26 -31 c-32 -38 -77 -51 -181 -51
l-83 0 0 325 0 325 90 0 c58 0 103 -6 129 -16z"/>
<path d="M18400 7885 c0 -2 -90 -403 -200 -890 -110 -488 -200 -888 -200 -891
0 -2 67 -4 149 -4 l149 0 77 398 c152 777 162 826 168 807 3 -11 56 -276 117
-590 60 -313 112 -580 115 -592 5 -23 8 -23 156 -23 138 0 150 1 145 18 -3 9
-89 386 -191 837 -102 451 -193 840 -201 864 -22 58 -54 71 -184 71 -55 0
-100 -2 -100 -5z"/>
<path d="M19800 6995 l0 -895 135 0 135 0 1 498 1 497 154 -459 c117 -352 160
-466 180 -487 32 -34 91 -49 188 -49 l76 0 0 895 0 895 -135 0 -135 0 0 -512
-1 -513 -149 485 c-113 370 -154 489 -170 502 -33 27 -87 38 -187 38 l-93 0 0
-895z"/>
<path d="M21460 7833 c11 -32 85 -267 165 -522 l145 -463 0 -353 0 -354 26
-20 c23 -18 41 -21 135 -21 l109 0 0 366 0 366 160 512 c89 281 163 519 166
529 6 18 -2 18 -120 15 -95 -2 -129 -7 -140 -18 -9 -8 -54 -164 -101 -345 -47
-182 -89 -338 -93 -348 -5 -13 -37 95 -97 328 -76 298 -92 349 -113 366 -21
16 -41 19 -143 19 l-118 0 19 -57z"/>
</g>
</svg>
